<svg height="464pt" viewBox="-48 0 464 464" width="464pt" xmlns="http://www.w3.org/2000/svg"><path d="m251.777344 216c-23.3125 0-46.65625-5.214844-67.777344-15.113281-21.121094 9.890625-44.464844 15.113281-67.777344 15.113281h-2.375c7.304688 32.015625 35.953125 56 70.144532 56 34.191406 0 62.839843-23.984375 70.144531-56zm0 0"/><path d="m256 160h-144v40h4.222656c22.167969 0 44.371094-5.238281 64.191406-15.160156l3.585938-1.785156 3.574219 1.792968c19.832031 9.914063 42.035156 15.160156 64.195312 15.160156h4.230469zm-112 24c-4.414062 0-8-3.585938-8-8s3.585938-8 8-8 8 3.585938 8 8c0 4.425781-3.585938 8-8 8zm80 0c-4.414062 0-8-3.585938-8-8s3.585938-8 8-8 8 3.585938 8 8c0 4.425781-3.585938 8-8 8zm0 0"/><path d="m152 118.558594v25.441406h24v-30.238281zm0 0"/><path d="m112 126.558594v17.441406h24v-22.238281zm0 0"/><path d="m256 126.558594-24-4.796875v22.238281h24zm0 0"/><path d="m240 299.3125-2.34375-2.34375c-5.480469-5.480469-9.472656-12.289062-11.679688-19.648438-12.480468 6.808594-26.785156 10.679688-41.976562 10.679688s-29.496094-3.871094-41.976562-10.679688c-2.207032 7.359376-6.199219 14.167969-11.679688 19.648438l-2.34375 2.34375v4.6875h112zm0 0"/><path d="m239.433594 352h-23.433594v37.886719c12.414062-8.679688 21.183594-22.230469 23.433594-37.886719zm0 0"/><path d="m256 336v16h111.433594c-3.890625-27.105469-27.265625-48-55.433594-48h-56zm0 0"/><path d="m296 368h56v32h-56zm0 0"/><path d="m272 200c0 19.265625-6.296875 37.039062-16.832031 51.542969l16.511719 4.128906 16.320312-5.441406v-130.230469c0-45.097656-29.753906-85.160156-72-98.871094v18.871094h16v16h-16v16h16v16h-16v14.246094l56 11.203125zm0 0"/><path d="m152 389.886719v-37.886719h-23.433594c2.25 15.65625 11.019532 29.207031 23.433594 37.886719zm0 0"/><path d="m128 320h112v16h-112zm0 0"/><path d="m192 144h24v-25.441406l-24-4.796875zm0 0"/><path d="m200 99.046875v-99.046875h-32v99.046875l16-3.199219zm0 0"/><path d="m200 352h-32v45.640625c5.070312 1.519531 10.441406 2.359375 16 2.359375s10.929688-.839844 16-2.359375zm0 0"/><path d="m128 464h48v-44.449219l-48 18zm0 0"/><path d="m296 448h56v16h-56zm0 0"/><path d="m296 416h72v16h-72zm0 0"/><path d="m116.199219 368h-28.199219v96h24v-37.542969l43.558594-16.335937c-18.3125-7.90625-32.648438-23.21875-39.359375-42.121094zm0 0"/><path d="m212.441406 410.121094 43.558594 16.335937v37.542969h24v-96h-28.199219c-6.710937 18.902344-21.046875 34.214844-39.359375 42.121094zm0 0"/><path d="m192 464h48v-26.449219l-48-18zm0 0"/><path d="m0 416h72v16h-72zm0 0"/><path d="m16 448h56v16h-56zm0 0"/><path d="m112.832031 251.550781c-10.535156-14.511719-16.832031-32.285156-16.832031-51.550781v-86.550781l56-11.203125v-14.246094h-16v-16h16v-16h-16v-16h16v-18.871094c-42.246094 13.710938-72 53.773438-72 98.871094v130.230469l16.320312 5.441406zm0 0"/><path d="m16 368h56v32h-56zm0 0"/><path d="m112 344v-40h-56c-28.167969 0-51.535156 20.894531-55.433594 48h111.433594zm0 0"/></svg>