<svg height="512pt" viewBox="-8 0 512 512" width="512pt" xmlns="http://www.w3.org/2000/svg"><path d="m420 0c-41.351562 0-75 33.648438-75 75 0 36.214844 25.808594 67.511719 60 74.480469v31.519531h-15c-8.289062 0-15 6.710938-15 15s6.710938 15 15 15h15v286c0 8.289062 6.710938 15 15 15s15-6.710938 15-15v-286h15c8.289062 0 15-6.710938 15-15s-6.710938-15-15-15h-15v-31.519531c34.191406-6.96875 60-37.265625 60-73.480469 0-41.351562-33.648438-76-75-76zm0 0"/><path d="m15 211h330c8.289062 0 15-6.710938 15-15s-6.710938-15-15-15h-36.972656l-115.546875-174.320312c-3.957031-5.917969-11.515625-8.1875-18.046875-5.609376l-150 60c-5.699219 2.285157-9.433594 7.792969-9.433594 13.929688s3.734375 12.644531 9.433594 14.929688l69.671875 27.867187-42.132813 63.203125h-36.972656c-8.289062 0-15 6.710938-15 15s6.710938 15 15 15zm0 0"/><path d="m342.65625 360.339844c-37.527344-2.871094-73.476562-14.734375-107.050781-27.421875-3.382813-1.273438-6.957031-1.917969-10.605469-1.917969-16.539062 0-30 13.460938-30 30s13.460938 30 30 30h75c19.804688 0 36.648438-12.859375 42.65625-30.660156zm0 0"/><path d="m60 391h75c16.539062 0 30-13.460938 30-30 .015625-20.171875-21.769531-35.214844-40.636719-28.066406-33.542969 12.671875-69.492187 24.535156-107.019531 27.40625 6.007812 17.800781 22.851562 30.660156 42.65625 30.660156zm0 0"/><path d="m82.367188 463.949219 90.921874 46.46875c2.109376 1.054687 4.410157 1.582031 6.710938 1.582031s4.601562-.527344 6.710938-1.582031l90.90625-46.46875c22.78125-11.363281 41.414062-28.882813 54.609374-50.515625-9.804687 4.707031-20.648437 7.566406-32.226562 7.566406h-75c-18.007812 0-33.996094-8.132812-45-20.730469-11.003906 12.597657-26.992188 20.730469-45 20.730469h-75c-11.578125 0-22.421875-2.859375-32.226562-7.566406 13.195312 21.632812 31.828124 39.152344 54.59375 50.515625zm0 0"/><path d="m210 241h-60c8.289062 0 15 6.710938 15 15v53.34375c5.671875 3.308594 10.703125 7.46875 15 12.386719 11.003906-12.597657 26.992188-20.730469 45-20.730469 11.546875 0 18.703125 2.835938 30.039062 6.992188 3.886719-6.007813 28.9375-25.367188 29.773438-66.992188h-44.8125c8.289062 0 15 6.710938 15 15s-6.710938 15-15 15h-30c-8.289062 0-15-6.710938-15-15s6.710938-15 15-15zm0 0"/><path d="m120 241h-44.8125c.824219 41.117188 26.140625 61.367188 29.773438 66.996094 2.980468-1.09375 5.78125-1.992188 8.828124-3.144532 6.8125-2.5625 13.945313-3.851562 21.210938-3.851562v-30h-15c-8.289062 0-15-6.710938-15-15s6.710938-15 15-15zm0 0"/><path d="m347.066406 306.128906-18.605468-65.128906h-13.632813c-.457031 28.773438-11.097656 55.539062-29.683594 77.128906 22.8125 6.984375 44.445313 11.390625 66.242188 12.308594-.785157-8.199219-2.046875-16.34375-4.320313-24.308594zm0 0"/><path d="m31.539062 241-18.605468 65.128906c-2.273438 7.964844-3.535156 16.109375-4.320313 24.308594 21.800781-.914062 43.433594-5.324219 66.246094-12.304688-18.585937-21.585937-29.230469-48.355468-29.6875-77.132812zm0 0"/></svg>